name processed_emg_signals
nRows=75
nColumns=7
 
endheader
time	LGLTMED	LRF	LADDLONG	LST	LTA	LGM
2.788	0.0271211091240404	0.3259373001646465	0.0026661487553113	0.0748583675855894	0.0619006263666143	0.0800195491506346
2.7889999999999997	0.030614523296956	0.2927492177560853	0.0139544141193777	0.0632537228223109	0.0493856886422068	0.0686410705531205
2.7899999999999996	0.0341335523462707	0.2597284957315951	0.0306021327795346	0.0515739519109015	0.0368681007690884	0.0573056078136672
2.7909999999999995	0.0376761721571344	0.2268939716472881	0.0472670726328353	0.0398238356230359	0.0243546440939314	0.0460195435736734
2.7919999999999994	0.0412403532410698	0.1942642146484176	0.063939268971644	0.0280082062555716	0.0118520928921099	0.0347891599268536
2.7929999999999993	0.0448240650595686	0.161857499395999	0.080608740326024	0.0161319429732842	0.0006327938870925	0.0236206280756651
2.793999999999999	0.0484252802668911	0.1296917806899563	0.0972655017550383	0.0041999672436828	0.0130932807795398	0.0125199982935605
2.794999999999999	0.0520419788459125	0.0977846688545392	0.1138995780375119	0.0077827616200935	0.0255226638497334	0.0014931902308898
2.795999999999999	0.0556721521144919	0.0661534059469632	0.1305010167256961	0.0198112507952912	0.0379142786005866	0.0094540164006147
2.796999999999999	0.059313806583339	0.0348148428457305	0.1470599010266693	0.0318804781535687	0.050261507733188	0.020315990732291
2.7979999999999987	0.0629649676503198	0.003785417271196	0.1635663624781553	0.0439853963239841	0.0625577887423343	0.0310872592019046
2.7989999999999986	0.0666236831191259	0.0269188672126496	0.1800105933873137	0.0561209366071582	0.0747966213352508	0.0417625135480447
2.7999999999999985	0.0702880265324064	0.0572824611690933	0.1963828590042201	0.0682820127342365	0.0869715746623051	0.0523366183100804
2.8009999999999984	0.0739561003110788	0.0872902881893601	0.2126735094049502	0.0804635244659778	0.0990762943493108	0.0628046178104604
2.8019999999999983	0.0776260386929533	0.1169277626834217	0.2288729910629895	0.0926603610289185	0.1111045093219769	0.0731617425985939
2.802999999999998	0.0812960104655231	0.1461808065251887	0.244971858090842	0.1048674043870747	0.1230500384135666	0.0834034153388435
2.803999999999998	0.0849642214899858	0.1750358645210435	0.2609607831369374	0.1170795323488528	0.1349067967478129	0.0935252561292165
2.804999999999998	0.0886289170156569	0.2034799186759405	0.2768305679264483	0.1292916215096511	0.1466688018898974	0.1035230872414205
2.805999999999998	0.0922883837854763	0.2315005012369336	0.2925721534378598	0.1414985500315076	0.1583301797592704	0.1133929372764524
2.8069999999999977	0.095940951934219	0.2590857064989236	0.3081766297099222	0.1536952002622117	0.1698851702991334	0.1231310447325369
2.8079999999999976	0.0995849966813304	0.2862242013606934	0.3236352452756497	0.1658764611969719	0.1813281328986877	0.1327338609851596
2.8089999999999975	0.1032189398210349	0.3129052346222731	0.3389394162223833	0.1780372307868666	0.1926535515657089	0.1421980526817274
2.8099999999999974	0.1068412510127894	0.3391186450182578	0.3540807348788556	0.1901724180987767	0.2038560398484532	0.151520503556282
2.8109999999999973	0.1104504488758325	0.364854867987041	0.3690509781321439	0.2022769453324863	0.2149303455071247	0.1606983156713813
2.811999999999997	0.1140451018924209	0.390104941182131	0.3838421153786382	0.2143457497019988	0.2258713549357069	0.1697288100953237
2.812999999999997	0.1176238291247942	0.4148605087383916	0.3984463161138347	0.2263737851895313	0.2366740973351179	0.1786095270234481
2.813999999999997	0.1211853007515078	0.439113824311046	0.4128559571664877	0.2383560241821014	0.2473337486390182	0.1873382253524466
2.814999999999997	0.1247282384289723	0.4628577529085746	0.4270636295823457	0.2502874590013809	0.2578456351938654	0.1959128817171098
2.8159999999999967	0.1282514154844989	0.486085771543076	0.4410621451623721	0.2621631033381233	0.2682052371959538	0.2043316889998228
2.8169999999999966	0.1317536569471435	0.5087919687236575	0.454844542659022	0.2739779936024677	0.2784081918886048	0.212593054324767
2.8179999999999965	0.1352338394230072	0.5309710428210038	0.4684040936334953	0.2857271902012923	0.2884502965232866	0.2206955965510157
2.8189999999999964	0.1386908908212836	0.5526182993333126	0.4817343079763393	0.297405778753456	0.2983275110886101	0.228638143280836
2.8199999999999963	0.1421237899373638	0.5737296470848309	0.4948289390939145	0.309008871253157	0.3080359608114361	0.2364197274009993
2.820999999999996	0.1455315658987846	0.5943015933885206	0.5076819887636886	0.3205316071911964	0.3175719384347826	0.2440395831759866
2.821999999999996	0.1489132974795681	0.6143312382042092	0.5202877116617443	0.33196915464384	0.3269319062776993	0.2514971419131406
2.822999999999996	0.1522681122882897	0.6338162673241625	0.5326406195663235	0.3433167113389938	0.3361124980828945	0.2587920272215391
2.823999999999996	0.1555951858350947	0.6527549446182497	0.5447354852410202	0.3545695057092681	0.3451105206581479	0.2659240498880124
2.8249999999999957	0.1588937404830642	0.6711461033713014	0.5565673460008607	0.3657227979414362	0.3539229553177479	0.2728932023950552
2.8259999999999956	0.1621630442892769	0.6889891367454465	0.5681315069633761	0.376771881031628	0.3625469591299644	0.2796996531060755
2.8269999999999955	0.1654024097409711	0.7062839874009731	0.5794235439853597	0.387712081855906	0.3709798659761156	0.2863437401436833
2.8279999999999954	0.1686111923921649	0.7230311363102833	0.5904393062851452	0.3985387622660783	0.3792191874264782	0.2928259649873671
2.8289999999999953	0.1717887894058145	0.7392315908010787	0.6011749187498867	0.4092473202213643	0.3872626134377598	0.2991469858176971
2.829999999999995	0.1749346380065624	0.7548868718666611	0.6116267839278963	0.41983319096725	0.395108012876153	0.305307610635578
2.830999999999995	0.1780482138489727	0.7699990007831433	0.6217915837071142	0.4302918482737881	0.4027534338691944	0.311308790185882
2.831999999999995	0.1811290293057555	0.7845704850744397	0.6316662806814876	0.4406188057461763	0.4101971039887266	0.3171516107150282
2.832999999999995	0.1841766316807315	0.7986043038665472	0.6412481192074522	0.4508096182202941	0.4174374302663311	0.3228372865915781
2.8339999999999947	0.1871906013517639	0.8121038926728219	0.6505346261516428	0.4608598832554839	0.4244729990421316	0.3283671528181802
2.8349999999999946	0.1901705498506113	0.8250731276518831	0.6595236113300452	0.470765242736683	0.4313025756470704	0.333742657462198
2.8359999999999945	0.193116117888398	0.8375163093802375	0.6682131676380756	0.4805213845977569	0.4379251039183488	0.3389653540316047
2.8369999999999944	0.1960269733372937	0.8494381461828796	0.6766016708714746	0.4901240446780628	0.4443397055470745	0.3440368938220745
2.8379999999999943	0.198902809179774	0.8608437370672914	0.6846877792392931	0.4995690087241673	0.4505456792565207	0.3489590182605617
2.838999999999994	0.201743341437257	0.8717385543098499	0.69247043257221	0.5088521145483615	0.4565424998085553	0.3537335512701853
2.839999999999994	0.2045483070896558	0.8821284257469723	0.6999488512312818	0.517969254355103	0.4623298168352141	0.3583623916802573
2.840999999999994	0.2073174619971593	0.8920195168255931	0.7071225347238528	0.52691637724551	0.4679074534921704	0.3628475057044846
2.841999999999994	0.2100505788351225	0.9014183124684676	0.7139912600341426	0.5356894919087718	0.4732754049312283	0.3671909195093615
2.8429999999999938	0.2127474450526773	0.9103315988091571	0.7205550796767011	0.544284669507804	0.4784338365895852	0.371394711894036
2.8439999999999936	0.2154078608652362	0.918766444850304	0.726814319480883	0.5526980467651608	0.4833830822940421	0.3754610071020486
2.8449999999999935	0.2180316372907107	0.9267301840972856	0.7327695761138289	0.5609258292538924	0.4881236421789604	0.3793919677847954
2.8459999999999934	0.2206185942392141	0.9342303962179244	0.7384217143486372	0.5689642948971625	0.4926561804173042	0.3831897881357966
2.8469999999999933	0.2231685586656909	0.9412748887770556	0.7437718640828941	0.5768097976794466	0.496981522765227	0.3868566872141485
2.847999999999993	0.2256813627951009	0.9478716790924862	0.7488214171117893	0.5844587715712937	0.5011006539220744	0.3903949024750097
2.848999999999993	0.2281568424294113	0.9540289762562976	0.7535720236587413	0.5919077346682284	0.5050147147097308	0.3938066835244696
2.849999999999993	0.2305948353456025	0.9597551633627064	0.7580255886655266	0.5991532935430174	0.5087249990773861	0.3970942861155664
2.850999999999993	0.2329951797933049	0.9650587799813196	0.762184267842484	0.6061921478088111	0.5122329509398968	0.4002599664017837
2.8519999999999928	0.2353577131005354	0.9699485049125268	0.7660504634776509	0.6130210948890314	0.5155401608589395	0.4033059754632652
2.8529999999999927	0.2376822703954503	0.974433139260704	0.7696268200017967	0.6196370349879237	0.5186483625771627	0.4062345541198712
2.8539999999999925	0.2399686834515961	0.9785215898597835	0.7729162193047395	0.6260369762536774	0.5215594294161061	0.4090479280437659
2.8549999999999924	0.2422167796636284	0.9822228530844362	0.775921775797228	0.6322180401239601	0.5242753705493903	0.4117483031828726
2.8559999999999923	0.2444263811599466	0.9855459990783224	0.7786468312124624	0.6381774668416011	0.5267983271628613	0.4143378615052645
2.856999999999992	0.2465973040580814	0.988500156428486	0.7810949491416359	0.6439126211260752	0.5291305685134003	0.4168187570734708
2.857999999999992	0.2487293578681617	0.991094497312622	0.7832699092992922	0.649420997984405	0.5312744878977074	0.4191931124565527
2.858999999999992	0.2508223450490882	0.9933382231431098	0.7851757015166848	0.6547002286431126	0.5332325985422957	0.4214630154866771
2.859999999999992	0.2528760607213221	0.995240550729088	0.7868165194649286	0.659748086581124	0.5350075294256046	0.423630516365711
2.8609999999999918	0.2548902925394544	0.9968106989748377	0.7881967541138141	0.6645624936416802	0.5366020210424249	0.4256976251260843
2.8619999999999917	0.256864820726784	0.9980578761304713	0.7893209869360689	0.6691415261997162	0.5380189211198916	0.4276663094487957
